<svg id="visual" viewBox="0 0 675 900" width="675" height="900" xmlns="http://www.w3.org/2000/svg" xmlns:xlink="http://www.w3.org/1999/xlink" version="1.1"><path d="M0 572L16 590.7C32 609.3 64 646.7 96.2 645.7C128.3 644.7 160.7 605.3 192.8 587.2C225 569 257 572 289.2 578.3C321.3 584.7 353.7 594.3 385.8 602C418 609.7 450 615.3 482.2 622C514.3 628.7 546.7 636.3 578.8 634.8C611 633.3 643 622.7 659 617.3L675 612L675 901L659 901C643 901 611 901 578.8 901C546.7 901 514.3 901 482.2 901C450 901 418 901 385.8 901C353.7 901 321.3 901 289.2 901C257 901 225 901 192.8 901C160.7 901 128.3 901 96.2 901C64 901 32 901 16 901L0 901Z" fill="#6972fa"></path><path d="M0 682L16 674.5C32 667 64 652 96.2 665.5C128.3 679 160.7 721 192.8 723.8C225 726.7 257 690.3 289.2 689.7C321.3 689 353.7 724 385.8 723C418 722 450 685 482.2 670.8C514.3 656.7 546.7 665.3 578.8 665.5C611 665.7 643 657.3 659 653.2L675 649L675 901L659 901C643 901 611 901 578.8 901C546.7 901 514.3 901 482.2 901C450 901 418 901 385.8 901C353.7 901 321.3 901 289.2 901C257 901 225 901 192.8 901C160.7 901 128.3 901 96.2 901C64 901 32 901 16 901L0 901Z" fill="#4a59e0"></path><path d="M0 736L16 748.2C32 760.3 64 784.7 96.2 784.7C128.3 784.7 160.7 760.3 192.8 750.8C225 741.3 257 746.7 289.2 752.7C321.3 758.7 353.7 765.3 385.8 773.2C418 781 450 790 482.2 800C514.3 810 546.7 821 578.8 827.3C611 833.7 643 835.3 659 836.2L675 837L675 901L659 901C643 901 611 901 578.8 901C546.7 901 514.3 901 482.2 901C450 901 418 901 385.8 901C353.7 901 321.3 901 289.2 901C257 901 225 901 192.8 901C160.7 901 128.3 901 96.2 901C64 901 32 901 16 901L0 901Z" fill="#2441c7"></path></svg>