<svg id="visual" viewBox="0 0 960 540" width="960" height="540" xmlns="http://www.w3.org/2000/svg" xmlns:xlink="http://www.w3.org/1999/xlink" version="1.1"><path d="M0 403L22.8 394.5C45.7 386 91.3 369 137 370.5C182.7 372 228.3 392 274 403.2C319.7 414.3 365.3 416.7 411.2 416.5C457 416.3 503 413.7 548.8 400.7C594.7 387.7 640.3 364.3 686 356.5C731.7 348.7 777.3 356.3 823 355.2C868.7 354 914.3 344 937.2 339L960 334L960 541L937.2 541C914.3 541 868.7 541 823 541C777.3 541 731.7 541 686 541C640.3 541 594.7 541 548.8 541C503 541 457 541 411.2 541C365.3 541 319.7 541 274 541C228.3 541 182.7 541 137 541C91.3 541 45.7 541 22.8 541L0 541Z" fill="#6972fa"></path><path d="M0 426L22.8 427C45.7 428 91.3 430 137 426.7C182.7 423.3 228.3 414.7 274 416.3C319.7 418 365.3 430 411.2 434.7C457 439.3 503 436.7 548.8 440.8C594.7 445 640.3 456 686 456.2C731.7 456.3 777.3 445.7 823 443.8C868.7 442 914.3 449 937.2 452.5L960 456L960 541L937.2 541C914.3 541 868.7 541 823 541C777.3 541 731.7 541 686 541C640.3 541 594.7 541 548.8 541C503 541 457 541 411.2 541C365.3 541 319.7 541 274 541C228.3 541 182.7 541 137 541C91.3 541 45.7 541 22.8 541L0 541Z" fill="#2441c7"></path></svg>