<svg width="248" height="248" viewBox="0 0 248 248" fill="none" xmlns="http://www.w3.org/2000/svg">
<path d="M228.672 49.6088C249.234 78.8458 251.656 119.124 241.911 154.558C232.165 189.991 210.195 220.468 179.944 235.847C149.693 251.169 111.161 251.338 78.7695 236.579C46.3215 221.82 20.0702 192.132 7.67682 154.558C-4.66018 116.927 -3.13918 71.4097 19.6758 41.6657C42.4345 11.9781 86.4872 -1.87992 127.892 0.204414C169.297 2.28875 208.054 20.4281 228.672 49.6088Z" fill="#2B8FEB"/>
<path d="M147.618 145.633C139.136 141.007 141.449 118.642 141.449 118.642L128.746 119.461V118.645L127.387 119.053L126.028 118.645V119.461L113.325 118.642C113.325 118.642 115.638 141.007 107.156 145.633C98.6745 150.26 48.5535 152.573 53.9515 204.236H126.028H128.747H200.824C206.221 152.573 156.1 150.259 147.618 145.633Z" fill="#F19C7C"/>
<path d="M111.544 139.864C121.691 138.352 131.831 136.791 141.964 135.183C140.538 127.472 141.45 118.642 141.45 118.642L128.747 119.461V118.645L127.388 119.053L126.029 118.645V119.461L113.326 118.642C113.326 118.642 114.664 131.636 111.544 139.864Z" fill="#C47D66"/>
<path d="M158.289 147.767C153.737 159.649 141.622 168.148 127.387 168.148C113.152 168.148 101.037 159.649 96.4852 147.767C79.0142 152.559 48.3002 162.821 52.6272 204.235H126.003H128.771H202.148C206.474 162.821 175.76 152.559 158.289 147.767Z" fill="#FDEDEE"/>
<path opacity="0.1" d="M190.212 163.997C171.47 176.124 148.864 180.877 127.842 187.573C108.135 193.85 88.1812 199.284 68.1062 204.236H202.147C204.167 184.905 198.55 172.365 190.212 163.997Z" fill="#352C38"/>
<path d="M161.247 148.603V204.236H202.147C206.24 165.067 178.994 153.768 161.247 148.603Z" fill="#404A53"/>
<path d="M93.2473 148.684C75.4943 153.886 48.5564 165.275 52.6274 204.236H93.2473V148.684Z" fill="#404A53"/>
<path d="M93.7373 148.684V204.236C93.7373 204.236 73.2373 169.287 74.2373 157.287C75.2373 145.287 91.7373 144.581 93.7373 148.684Z" fill="#88BBE5"/>
<path d="M160.212 148.684V204.236C160.212 204.236 180.712 169.287 179.712 157.287C178.712 145.287 162.212 144.581 160.212 148.684Z" fill="#88BBE5"/>
<path d="M102.55 85.906C100.051 78.153 94.1334 79.948 93.5794 80.135C92.9984 80.203 86.8814 81.111 87.9384 89.188C89.0014 97.313 93.7164 101.717 98.1374 100.424C102.686 99.702 105.064 93.705 102.55 85.906Z" fill="#C47D66"/>
<path d="M152.452 85.906C154.951 78.153 160.869 79.948 161.423 80.135C162.004 80.203 168.121 81.111 167.064 89.188C166.001 97.313 161.286 101.717 156.865 100.424C152.316 99.702 149.938 93.705 152.452 85.906Z" fill="#C47D66"/>
<path d="M96.4875 74.16C99.5845 40.169 125.425 42.073 127.862 42.329C130.299 42.073 156.14 40.169 159.237 74.16C162.353 108.353 147.122 130.685 127.862 129.456C108.602 130.685 93.3725 108.353 96.4875 74.16Z" fill="#F19C7C"/>
<path d="M132.318 78.146C132.748 79.706 133.08 81.277 133.378 82.851C133.674 84.426 133.924 86.006 134.147 87.588C134.265 88.379 134.348 89.173 134.449 89.966C134.554 90.758 134.633 91.553 134.708 92.349C134.875 93.938 134.993 95.533 135.087 97.13L135.112 97.56L134.802 97.751C133.784 98.378 132.751 98.984 131.709 99.576C130.658 100.155 129.61 100.739 128.516 101.255C129.392 100.421 130.314 99.654 131.233 98.882C132.161 98.123 133.098 97.378 134.05 96.655L133.765 97.276C133.507 95.697 133.273 94.115 133.089 92.528C132.989 91.735 132.892 90.942 132.821 90.146C132.747 89.35 132.654 88.557 132.596 87.76C132.468 86.167 132.366 84.571 132.31 82.969C132.259 81.367 132.239 79.762 132.318 78.146Z" fill="#76413B"/>
<path d="M141.037 107.361C134.885 113.341 124.464 113.01 116.571 107.68Z" fill="white"/>
<path d="M152.231 75.626C152.231 75.626 151.962 75.477 151.49 75.216C151.261 75.091 150.984 74.939 150.665 74.764C150.353 74.599 150.001 74.413 149.616 74.21C149.219 74.04 148.822 73.811 148.378 73.637C148.163 73.541 147.942 73.443 147.716 73.342C147.488 73.259 147.255 73.174 147.018 73.088C146.558 72.884 146.056 72.809 145.579 72.64C145.083 72.589 144.597 72.4 144.102 72.42L143.365 72.36C143.123 72.389 142.88 72.397 142.637 72.411C142.145 72.39 141.688 72.573 141.213 72.632C140.74 72.707 140.315 72.936 139.87 73.053L139.542 73.155L139.243 73.306C139.04 73.401 138.843 73.493 138.654 73.581C138.279 73.767 137.894 73.902 137.604 74.103C137.306 74.29 137.022 74.437 136.79 74.565C136.323 74.818 136.024 74.95 136.024 74.95C136.024 74.95 136.142 74.666 136.406 74.19C136.539 73.953 136.699 73.658 136.91 73.338C137.096 72.994 137.391 72.68 137.726 72.339C138.072 72.013 138.384 71.564 138.874 71.28C139.352 70.988 139.825 70.592 140.419 70.372C140.712 70.253 141.018 70.147 141.329 70.038C141.635 69.907 141.964 69.851 142.301 69.813C142.636 69.767 142.975 69.715 143.317 69.683C143.657 69.687 144 69.712 144.342 69.731C145.036 69.745 145.677 69.975 146.32 70.131C146.628 70.242 146.924 70.376 147.216 70.504C147.513 70.623 147.793 70.762 148.047 70.932C148.307 71.092 148.565 71.242 148.806 71.405C149.033 71.584 149.254 71.76 149.47 71.931C149.908 72.26 150.239 72.665 150.57 72.996C151.192 73.706 151.621 74.358 151.874 74.845C152.137 75.324 152.231 75.626 152.231 75.626Z" fill="#352C38"/>
<path d="M120.042 75.626C120.042 75.626 119.773 75.477 119.301 75.216C119.072 75.091 118.795 74.939 118.476 74.764C118.164 74.599 117.812 74.413 117.427 74.21C117.03 74.04 116.633 73.811 116.189 73.637C115.974 73.541 115.753 73.443 115.527 73.342C115.299 73.259 115.066 73.174 114.829 73.088C114.369 72.884 113.867 72.809 113.39 72.64C112.894 72.589 112.408 72.4 111.913 72.42L111.176 72.36C110.934 72.389 110.691 72.397 110.448 72.411C109.956 72.39 109.499 72.573 109.024 72.632C108.551 72.707 108.126 72.936 107.681 73.053L107.353 73.155L107.054 73.306C106.85 73.401 106.654 73.493 106.465 73.581C106.09 73.767 105.705 73.902 105.415 74.103C105.117 74.29 104.833 74.437 104.601 74.565C104.134 74.818 103.835 74.95 103.835 74.95C103.835 74.95 103.953 74.666 104.217 74.19C104.35 73.953 104.51 73.658 104.721 73.338C104.907 72.994 105.203 72.68 105.537 72.339C105.883 72.013 106.195 71.564 106.685 71.28C107.163 70.988 107.636 70.592 108.23 70.372C108.523 70.253 108.829 70.147 109.14 70.038C109.446 69.907 109.775 69.851 110.112 69.813C110.447 69.767 110.786 69.715 111.128 69.683C111.469 69.687 111.811 69.712 112.153 69.731C112.847 69.745 113.488 69.975 114.131 70.131C114.439 70.242 114.735 70.376 115.027 70.504C115.324 70.623 115.604 70.762 115.858 70.932C116.118 71.092 116.376 71.242 116.617 71.405C116.843 71.584 117.065 71.76 117.281 71.931C117.719 72.26 118.05 72.665 118.381 72.996C119.003 73.706 119.432 74.358 119.685 74.845C119.948 75.324 120.042 75.626 120.042 75.626Z" fill="#352C38"/>
<path d="M119.021 87.944C119.021 87.944 118.951 87.668 118.794 87.206C118.637 86.745 118.393 86.094 118.012 85.382C117.626 84.676 117.087 83.908 116.336 83.348C115.965 83.065 115.54 82.84 115.08 82.699C114.852 82.619 114.621 82.545 114.37 82.528C114.125 82.495 113.882 82.444 113.625 82.469C113.387 82.478 113.084 82.448 112.899 82.482C112.639 82.532 112.313 82.544 112.112 82.623C111.706 82.756 111.243 82.91 110.894 83.201C110.52 83.457 110.232 83.808 109.971 84.156C109.737 84.525 109.537 84.901 109.39 85.274C109.1 86.02 108.953 86.699 108.867 87.178C108.781 87.658 108.757 87.942 108.757 87.942C108.757 87.942 108.681 87.667 108.63 87.169C108.584 86.673 108.554 85.947 108.733 85.079C108.819 84.645 108.967 84.178 109.201 83.707C109.455 83.25 109.762 82.755 110.233 82.382C110.676 81.98 111.226 81.685 111.866 81.495C112.183 81.387 112.423 81.383 112.708 81.322C113.072 81.258 113.334 81.29 113.653 81.274C113.957 81.256 114.265 81.32 114.571 81.371C114.879 81.404 115.175 81.502 115.465 81.611C115.765 81.694 116.031 81.849 116.29 82.009C116.562 82.148 116.781 82.352 117.005 82.537C117.881 83.315 118.368 84.284 118.64 85.11C118.919 85.943 118.998 86.662 119.027 87.159C119.051 87.661 119.021 87.944 119.021 87.944Z" fill="#352C38"/>
<path d="M147.948 87.477C147.948 87.477 147.878 87.201 147.721 86.739C147.564 86.278 147.32 85.627 146.939 84.915C146.553 84.209 146.014 83.441 145.263 82.881C144.892 82.598 144.467 82.373 144.007 82.232C143.779 82.152 143.548 82.077 143.297 82.061C143.052 82.028 142.809 81.977 142.552 82.002C142.314 82.011 142.01 81.981 141.825 82.016C141.565 82.065 141.24 82.078 141.038 82.157C140.632 82.289 140.169 82.444 139.82 82.735C139.446 82.991 139.158 83.342 138.897 83.69C138.663 84.059 138.463 84.435 138.316 84.808C138.026 85.554 137.879 86.233 137.793 86.712C137.707 87.192 137.683 87.476 137.683 87.476C137.683 87.476 137.607 87.202 137.556 86.703C137.51 86.207 137.48 85.481 137.658 84.613C137.744 84.179 137.892 83.712 138.126 83.241C138.38 82.784 138.687 82.289 139.158 81.916C139.601 81.514 140.151 81.219 140.791 81.029C141.108 80.921 141.348 80.917 141.633 80.856C141.997 80.792 142.258 80.824 142.578 80.808C142.883 80.791 143.19 80.854 143.496 80.905C143.804 80.938 144.1 81.036 144.39 81.145C144.689 81.228 144.956 81.383 145.215 81.543C145.486 81.682 145.706 81.886 145.93 82.071C146.806 82.849 147.293 83.818 147.565 84.644C147.844 85.476 147.923 86.196 147.952 86.693C147.978 87.194 147.948 87.477 147.948 87.477Z" fill="#352C38"/>
<path d="M160.58 47.954C158.837 40.982 154.678 39.219 152.684 38.773C151.535 20.812 103.538 17.52 102.914 20.954C102.247 24.621 119.914 30.621 119.914 30.621C119.914 30.621 88.2474 22.288 89.9144 29.621C91.2684 35.578 104.059 34.936 108.813 34.486C102.129 35.319 79.2824 38.989 89.5814 49.288C90.4234 50.13 91.3394 50.849 92.3034 51.476C91.3444 64.245 95.1324 94.288 95.1324 94.288H97.7974L96.7974 73.621C101.964 72.588 104.327 60.345 105.129 54.888C113.877 55.013 122.667 52.043 125.921 50.812C123.96 51.725 120.866 53.814 124.248 56.954C127.7 60.16 140.082 56.254 146.296 54.003C147.439 58.871 151.113 72.526 156.583 73.62L155.583 94.287H158.248C158.248 94.287 162.914 57.287 160.58 47.954Z" fill="#76413B"/>
<path d="M160.58 47.954C158.837 40.982 154.678 39.219 152.684 38.773C152.474 35.49 150.694 32.699 147.929 30.348C146.435 42.528 137.522 52.884 126.208 57.897C131.077 59.08 140.955 55.938 146.294 54.004C147.437 58.872 151.111 72.527 156.581 73.621L155.581 94.288H158.246C158.246 94.288 162.914 57.287 160.58 47.954Z" fill="#633B3A"/>
</svg>
